# xmcd CD database file
#
# Track frame offsets:
#	150
#	13102
#	31539
#	43392
#	61505
#	79518
#	104045
#	123038
#	141848
#	152051
#	211304
#	233788
#
# Disc length: 3393 seconds
#
# Revision: 0
# Processed by: cddbd v1.5.2PL0 Copyright (c) Steve Scherf et al.
# Submitted via: CDex 1.51
#
DISCID=930d3f0c
DTITLE=Danny Thompson - Connected
DYEAR=2012
DGENRE=Jazz
TTITLE0=Hatmosphere - Danny Thompson and Bobby Eichorn
TTITLE1=May Day Psalter - Richard Thompson
TTITLE2=No Love Is Sorrow - Bert Jansch
TTITLE3=One Day - Martin Simpson
TTITLE4=Come Into This Room - Darrell Scott
TTITLE5=Blood Brother - Tom Robinson
TTITLE6=Back To Where It Started - Anne Marie Almedal
TTITLE7=Rag And Bones - Frazer Anderson
TTITLE8=All The Pretty Little Horses - Barbara Dickson
TTITLE9=Outside In - John Martyn
TTITLE10=Cold Is To The Bone - Charlie Wood
TTITLE11=Connected - Eric Bibb
EXTD=YEAR: 2012
EXTT0=
EXTT1=
EXTT2=
EXTT3=
EXTT4=
EXTT5=
EXTT6=
EXTT7=
EXTT8=
EXTT9=
EXTT10=
EXTT11=
PLAYORDER=
